<?xml version="1.0" encoding="UTF-8" standalone="no"?><!DOCTYPE svg PUBLIC "-//W3C//DTD SVG 1.1//EN" "http://www.w3.org/Graphics/SVG/1.1/DTD/svg11.dtd"><svg width="100%" height="100%" viewBox="0 0 256 256" version="1.1" xmlns="http://www.w3.org/2000/svg" xmlns:xlink="http://www.w3.org/1999/xlink" xml:space="preserve" xmlns:serif="http://www.serif.com/" style="fill-rule:evenodd;clip-rule:evenodd;stroke-linecap:round;stroke-linejoin:round;stroke-miterlimit:10;"><g><g><path d="M172.735,179.089c-0.371,1.712 -1.38,2.568 -3.028,2.568l-16.683,-0c-1.359,-0 -2.039,-0.578 -2.039,-1.734c0,-0.128 0.042,-0.406 0.124,-0.834l17.424,-85.081c0.371,-1.712 1.359,-2.569 2.966,-2.569l16.621,0c0.659,0 1.194,0.129 1.606,0.386c0.412,0.256 0.762,0.684 1.051,1.284l21.934,49.315l9.948,-48.416c0.371,-1.712 1.359,-2.569 2.966,-2.569l16.682,0c1.401,0 2.101,0.6 2.101,1.798c0,0.171 -0.041,0.428 -0.124,0.771l-17.424,85.081c-0.371,1.712 -1.38,2.568 -3.027,2.568l-14.52,-0c-1.236,-0 -2.101,-0.557 -2.595,-1.669l-23.479,-52.14l-10.504,51.241Z" style="fill:#29a6df;fill-rule:nonzero;"/></g><g id="logo.svg"><g><path d="M150.63,187.14c-3.796,6.08 -10.547,10.133 -18.226,10.133c-11.836,0 -21.466,-9.63 -21.466,-21.467c-0,-11.836 9.629,-21.466 21.466,-21.466c5.18,-0 9.937,1.843 13.649,4.909c-1.785,8.769 -3.271,16.087 -4.098,20.187c-0.136,0.674 -0.156,1.493 -0.144,2.058c0.01,0.452 0.085,0.906 0.219,1.337c0.15,0.485 0.443,1.147 0.684,1.572c0.205,0.358 0.48,0.683 0.766,0.973c0.286,0.29 0.632,0.559 0.952,0.767c0.304,0.197 0.623,0.391 0.974,0.481c0.627,0.16 1.844,0.457 2.787,0.481c0.602,0.014 1.444,0.026 2.437,0.035Zm-3.817,-31.617c-5.496,-0.105 -9.935,-4.608 -9.936,-10.128c0,-5.586 4.545,-10.133 10.131,-10.133c1.339,0 2.619,0.262 3.79,0.736c-1.369,6.695 -2.734,13.382 -3.985,19.525Zm7.757,-37.941c-1.857,2.083 -4.559,3.396 -7.562,3.396c-5.586,0 -10.131,-4.545 -10.131,-10.131c0,-5.586 4.545,-10.131 10.131,-10.131c4.463,-0 8.261,2.9 9.609,6.915c-0.638,3.096 -1.327,6.445 -2.047,9.951Zm2.82,-13.699c-0.132,-0.377 -0.203,-0.783 -0.203,-1.204c-0,-0.954 0.366,-1.824 0.964,-2.476c-0.241,1.161 -0.495,2.391 -0.761,3.68Zm3.045,-13.55c-0.585,0.394 -1.29,0.625 -2.048,0.625c-2.023,-0 -3.669,-1.647 -3.669,-3.67c-0,-2.024 1.646,-3.669 3.669,-3.669c2.025,0 3.672,1.645 3.672,3.669c0,0.223 -0.02,0.441 -0.058,0.653c-0.351,0.356 -0.754,0.799 -1.001,1.246c-0.18,0.323 -0.379,0.718 -0.565,1.146Zm-126.907,62.842c-13.881,0 -25.173,-11.293 -25.173,-25.175c0,-13.881 11.292,-25.173 25.173,-25.173c13.881,0 25.172,11.292 25.172,25.173c0,13.882 -11.291,25.175 -25.172,25.175Zm-1.76,-57.863c-5.586,0 -10.129,-4.544 -10.13,-10.131c-0,-5.585 4.543,-10.129 10.13,-10.129c5.586,-0 10.131,4.544 10.131,10.129c-0,5.587 -4.545,10.131 -10.131,10.131Zm16.13,-16.034c-5.586,-0 -10.131,-4.545 -10.131,-10.131c-0,-5.585 4.545,-10.13 10.131,-10.13c5.586,-0 10.13,4.545 10.13,10.13c-0,5.586 -4.544,10.131 -10.13,10.131Zm33.682,-34.492c5.586,-0 10.131,4.544 10.131,10.129c0,5.587 -4.545,10.131 -10.131,10.131c-5.586,0 -10.13,-4.544 -10.13,-10.131c0,-5.585 4.544,-10.129 10.13,-10.129Zm20.305,30.128c-5.585,0 -10.13,-4.544 -10.13,-10.131c0,-5.586 4.545,-10.131 10.13,-10.131c5.586,-0 10.132,4.545 10.132,10.131c0,5.587 -4.546,10.131 -10.132,10.131Zm9.053,5.28c-0,-11.837 9.63,-21.467 21.466,-21.467c11.836,-0 21.469,9.63 21.469,21.467c-0,11.837 -9.633,21.468 -21.469,21.468c-11.836,-0 -21.466,-9.63 -21.466,-21.468Zm-61.119,10.677c0,2.024 -1.646,3.669 -3.67,3.669c-2.024,-0 -3.67,-1.645 -3.67,-3.669c0,-2.023 1.646,-3.67 3.67,-3.67c2.024,0 3.67,1.647 3.67,3.67Zm2.665,-3.221c-2.023,0 -3.669,-1.646 -3.669,-3.669c-0,-2.024 1.646,-3.671 3.669,-3.671c2.024,0 3.671,1.647 3.671,3.671c-0,2.023 -1.647,3.669 -3.671,3.669Zm11.884,-22.327c-2.025,-0 -3.67,-1.647 -3.67,-3.671c-0,-2.023 1.645,-3.67 3.67,-3.67c2.023,0 3.669,1.647 3.669,3.67c-0,2.024 -1.646,3.671 -3.669,3.671Zm-7.118,-5.567c-2.023,-0 -3.67,-1.645 -3.67,-3.67c0,-2.024 1.647,-3.669 3.67,-3.669c2.024,0 3.67,1.645 3.67,3.669c0,2.025 -1.646,3.67 -3.67,3.67Zm8.683,-10.944c2.023,-0 3.67,1.645 3.67,3.669c-0,2.024 -1.647,3.669 -3.67,3.669c-2.024,0 -3.67,-1.645 -3.67,-3.669c-0,-2.024 1.646,-3.669 3.67,-3.669Zm29.84,2.784c-2.023,0 -3.67,-1.645 -3.67,-3.67c-0,-2.024 1.647,-3.669 3.67,-3.669c2.023,0 3.67,1.645 3.67,3.669c0,2.025 -1.647,3.67 -3.67,3.67Zm9.014,0.97c-2.025,-0 -3.672,-1.646 -3.672,-3.669c0,-2.025 1.647,-3.67 3.672,-3.67c2.024,-0 3.67,1.645 3.67,3.67c-0,2.023 -1.646,3.669 -3.67,3.669Zm8.966,2.183c-2.025,0 -3.671,-1.647 -3.671,-3.67c-0,-2.023 1.646,-3.67 3.671,-3.67c2.024,-0 3.67,1.647 3.67,3.67c0,2.023 -1.646,3.67 -3.67,3.67Zm8.728,3.083c-2.024,-0 -3.67,-1.646 -3.67,-3.669c0,-2.023 1.646,-3.67 3.67,-3.67c2.023,0 3.67,1.647 3.67,3.67c0,2.023 -1.647,3.669 -3.67,3.669Zm28.21,37.951c0,-2.023 1.647,-3.67 3.67,-3.67c2.024,-0 3.67,1.647 3.67,3.67c0,2.023 -1.646,3.67 -3.67,3.67c-2.023,-0 -3.67,-1.647 -3.67,-3.67Zm-8.685,32.217c-0,-2.024 1.647,-3.669 3.67,-3.669c2.023,0 3.67,1.645 3.67,3.669c-0,2.023 -1.647,3.67 -3.67,3.67c-2.023,-0 -3.67,-1.647 -3.67,-3.67Zm-92.63,-24.795c-2.024,0 -3.67,-1.645 -3.67,-3.668c0,-2.024 1.646,-3.67 3.67,-3.67c2.024,-0 3.669,1.646 3.669,3.67c0,2.023 -1.645,3.668 -3.669,3.668Zm5.946,6.959c-2.023,0 -3.668,-1.646 -3.668,-3.669c-0,-2.024 1.645,-3.671 3.668,-3.671c2.024,0 3.67,1.647 3.67,3.671c0,2.023 -1.646,3.669 -3.67,3.669Zm0,-21.191c2.024,-0 3.67,1.645 3.67,3.668c0,2.024 -1.646,3.67 -3.67,3.67c-2.023,0 -3.668,-1.646 -3.668,-3.67c-0,-2.023 1.645,-3.668 3.668,-3.668Zm-14.959,5.66c2.024,-0 3.67,1.646 3.67,3.67c-0,2.023 -1.646,3.67 -3.67,3.67c-2.023,-0 -3.67,-1.647 -3.67,-3.67c-0,-2.024 1.647,-3.67 3.67,-3.67Zm-25.002,12.388c-2.024,0 -3.67,-1.645 -3.67,-3.669c-0,-2.023 1.646,-3.669 3.67,-3.669c2.023,-0 3.67,1.646 3.67,3.669c-0,2.024 -1.647,3.669 -3.67,3.669Zm3.748,-8.242c-2.025,-0 -3.67,-1.647 -3.67,-3.67c-0,-2.023 1.645,-3.67 3.67,-3.67c2.023,-0 3.669,1.647 3.669,3.67c-0,2.023 -1.646,3.67 -3.669,3.67Zm22.79,72.28c-0,5.587 -4.545,10.133 -10.131,10.133c-5.587,0 -10.13,-4.546 -10.13,-10.133c-0,-5.586 4.543,-10.132 10.13,-10.132c5.586,-0 10.131,4.546 10.131,10.132Zm16.129,16.036c-0,5.585 -4.544,10.132 -10.13,10.132c-5.586,0 -10.131,-4.546 -10.131,-10.132c-0,-5.587 4.545,-10.133 10.131,-10.133c5.586,-0 10.13,4.546 10.13,10.133Zm23.554,4.1c5.586,0 10.129,4.546 10.129,10.133c0,5.585 -4.543,10.131 -10.129,10.131c-5.587,-0 -10.132,-4.546 -10.132,-10.131c0,-5.587 4.545,-10.133 10.132,-10.133Zm20.303,-9.867c5.586,-0 10.132,4.545 10.132,10.13c0,5.588 -4.546,10.132 -10.132,10.132c-5.585,0 -10.13,-4.544 -10.13,-10.132c0,-5.585 4.545,-10.13 10.13,-10.13Zm-55.734,-12.287c-2.025,0 -3.67,-1.646 -3.67,-3.669c-0,-2.024 1.645,-3.672 3.67,-3.672c2.023,-0 3.668,1.648 3.668,3.672c0,2.023 -1.645,3.669 -3.668,3.669Zm6.333,6.889c-2.023,0 -3.669,-1.646 -3.669,-3.669c-0,-2.023 1.646,-3.671 3.669,-3.671c2.024,0 3.671,1.648 3.671,3.671c-0,2.023 -1.647,3.669 -3.671,3.669Zm15.553,18.66c-0,2.023 -1.646,3.67 -3.669,3.67c-2.025,-0 -3.67,-1.647 -3.67,-3.67c-0,-2.024 1.645,-3.672 3.67,-3.672c2.023,0 3.669,1.648 3.669,3.672Zm-10.787,1.896c2.024,-0 3.67,1.646 3.67,3.67c0,2.023 -1.646,3.671 -3.67,3.671c-2.023,0 -3.67,-1.648 -3.67,-3.671c0,-2.024 1.647,-3.67 3.67,-3.67Zm8.683,3.603c2.023,0 3.67,1.649 3.67,3.673c-0,2.024 -1.647,3.67 -3.67,3.67c-2.024,0 -3.67,-1.646 -3.67,-3.67c-0,-2.024 1.646,-3.673 3.67,-3.673Zm29.84,4.555c2.023,0 3.67,1.647 3.67,3.673c0,2.023 -1.647,3.67 -3.67,3.67c-2.023,0 -3.67,-1.647 -3.67,-3.67c-0,-2.025 1.647,-3.673 3.67,-3.673Zm9.014,-0.968c2.024,-0 3.67,1.647 3.67,3.671c-0,2.022 -1.646,3.669 -3.67,3.669c-2.025,-0 -3.672,-1.647 -3.672,-3.669c0,-2.023 1.647,-3.671 3.672,-3.671Zm8.966,-2.182c2.024,-0 3.67,1.645 3.67,3.67c0,2.023 -1.646,3.67 -3.67,3.67c-2.025,-0 -3.671,-1.647 -3.671,-3.67c-0,-2.025 1.646,-3.67 3.671,-3.67Zm8.728,-3.083c2.023,-0 3.672,1.647 3.672,3.669c-0,2.023 -1.649,3.671 -3.672,3.671c-2.024,0 -3.67,-1.648 -3.67,-3.671c0,-2.022 1.646,-3.669 3.67,-3.669Zm-73.105,-38.036c-2.024,0 -3.67,-1.646 -3.67,-3.67c0,-2.023 1.646,-3.67 3.67,-3.67c2.024,0 3.669,1.647 3.669,3.67c0,2.024 -1.645,3.67 -3.669,3.67Zm5.946,-14.299c2.024,0 3.67,1.648 3.67,3.672c0,2.023 -1.646,3.668 -3.67,3.668c-2.023,0 -3.668,-1.645 -3.668,-3.668c-0,-2.024 1.645,-3.672 3.668,-3.672Zm3.67,17.524c0,2.023 -1.646,3.669 -3.67,3.669c-2.023,0 -3.668,-1.646 -3.668,-3.669c-0,-2.024 1.645,-3.671 3.668,-3.671c2.024,0 3.67,1.647 3.67,3.671Zm-18.629,-9.331c2.024,0 3.67,1.645 3.67,3.67c-0,2.024 -1.646,3.67 -3.67,3.67c-2.023,0 -3.67,-1.646 -3.67,-3.67c-0,-2.025 1.647,-3.67 3.67,-3.67Zm-21.331,-1.379c0,2.023 -1.646,3.669 -3.67,3.669c-2.025,0 -3.671,-1.646 -3.671,-3.669c-0,-2.025 1.646,-3.671 3.671,-3.671c2.024,0 3.67,1.646 3.67,3.671Zm3.747,8.243c0,2.023 -1.645,3.67 -3.668,3.67c-2.025,0 -3.672,-1.647 -3.672,-3.67c-0,-2.023 1.647,-3.67 3.672,-3.67c2.023,0 3.668,1.647 3.668,3.67Z" style="fill:none;stroke:#53b7db;stroke-opacity:0.25;stroke-width:2.82px;"/><g><path d="M153.684,187.158c-15.566,16.246 -37.481,26.361 -61.757,26.361c-47.233,-0 -85.519,-38.287 -85.519,-85.519c0,-47.23 38.287,-85.519 85.519,-85.519c31.986,0 59.871,17.561 74.539,43.567c-0.775,0.092 -1.584,0.272 -2.068,0.384c-0.373,0.088 -0.718,0.274 -1.051,0.463c-0.341,0.194 -0.706,0.417 -0.996,0.7c-0.391,0.383 -1.014,0.984 -1.351,1.592c-0.42,0.755 -0.947,1.909 -1.165,2.939c-3.174,15.041 -14.876,72.415 -17.88,87.31c-0.136,0.674 -0.156,1.493 -0.144,2.058c0.01,0.452 0.085,0.906 0.219,1.337c0.15,0.485 0.443,1.147 0.684,1.572c0.205,0.358 0.48,0.683 0.766,0.973c0.286,0.29 0.632,0.559 0.952,0.767c0.304,0.197 0.623,0.391 0.974,0.481c0.627,0.16 1.844,0.457 2.787,0.481c1.157,0.028 3.198,0.046 5.491,0.053Z" style="fill:none;stroke:#26a7df;stroke-width:2.82px;stroke-linecap:butt;stroke-linejoin:miter;"/><circle cx="78.884" cy="84.898" r="18.216" style="fill:none;stroke:#26a7df;stroke-width:2.82px;stroke-linecap:butt;stroke-linejoin:miter;"/><circle cx="78.884" cy="171.104" r="18.216" style="fill:none;stroke:#26a7df;stroke-width:2.82px;stroke-linecap:butt;stroke-linejoin:miter;"/><path d="M97.101,84.898l-0,86.206" style="fill:none;fill-rule:nonzero;stroke:#26a7df;stroke-width:2.82px;stroke-linecap:butt;stroke-linejoin:miter;"/><g><path d="M91.696,71.917l43.223,43.223l-25.763,25.763l-43.223,-43.223l25.763,-25.763Z" style="fill:none;stroke:#26a7df;stroke-width:2.82px;"/></g><g><path d="M134.881,140.93l-43.222,43.223l-25.762,-25.762l43.222,-43.223l25.762,25.762Z" style="fill:none;stroke:#26a7df;stroke-width:2.82px;"/></g><path d="M60.66,170.863l0,-86.204" style="fill:none;fill-rule:nonzero;stroke:#26a7df;stroke-width:2.82px;stroke-linecap:butt;stroke-linejoin:miter;"/><circle cx="121.987" cy="128" r="18.217" style="fill:none;stroke:#26a7df;stroke-width:2.82px;stroke-linecap:butt;stroke-linejoin:miter;"/></g></g></g></g></svg>