<?xml version="1.0" encoding="UTF-8" standalone="no"?><!DOCTYPE svg PUBLIC "-//W3C//DTD SVG 1.1//EN" "http://www.w3.org/Graphics/SVG/1.1/DTD/svg11.dtd"><svg width="100%" height="100%" viewBox="0 0 1067 1067" version="1.1" xmlns="http://www.w3.org/2000/svg" xmlns:xlink="http://www.w3.org/1999/xlink" xml:space="preserve" xmlns:serif="http://www.serif.com/" style="fill-rule:evenodd;clip-rule:evenodd;stroke-linecap:round;stroke-linejoin:round;stroke-miterlimit:10;"><path d="M640.349,779.823c-64.859,67.692 -156.169,109.839 -257.32,109.839c-196.805,-0 -356.329,-159.527 -356.329,-356.329c0,-196.792 159.527,-356.328 356.329,-356.328c133.274,-0 249.461,73.17 310.58,181.529c-3.23,0.383 -6.601,1.131 -8.618,1.601c-1.554,0.363 -2.992,1.141 -4.379,1.929c-1.421,0.807 -2.941,1.738 -4.15,2.917c-1.63,1.592 -4.225,4.1 -5.631,6.632c-1.748,3.146 -3.944,7.952 -4.851,12.245c-13.226,62.673 -61.985,301.731 -74.502,363.792c-0.566,2.81 -0.65,6.219 -0.597,8.576c0.041,1.881 0.352,3.774 0.909,5.572c0.628,2.02 1.846,4.779 2.853,6.546c0.852,1.494 1.997,2.849 3.189,4.058c1.192,1.208 2.633,2.329 3.97,3.195c1.265,0.818 2.594,1.63 4.057,2.003c2.611,0.668 7.685,1.904 11.612,2.003c4.819,0.119 13.327,0.191 22.878,0.22Z" style="fill:#fff;"/><g><g><path d="M719.727,746.202c-1.545,7.135 -5.749,10.701 -12.615,10.701l-69.511,0c-5.663,0 -8.496,-2.406 -8.496,-7.222c0,-0.536 0.172,-1.696 0.516,-3.479l72.6,-354.502c1.545,-7.135 5.664,-10.703 12.358,-10.703l69.253,-0c2.747,-0 4.977,0.535 6.694,1.605c1.716,1.071 3.174,2.854 4.377,5.352l91.394,205.478l41.448,-201.732c1.545,-7.135 5.664,-10.703 12.358,-10.703l69.51,-0c5.836,-0 8.754,2.498 8.754,7.492c-0,0.713 -0.172,1.783 -0.516,3.211l-72.6,354.502c-1.545,7.135 -5.749,10.701 -12.615,10.701l-60.5,0c-5.149,0 -8.753,-2.318 -10.813,-6.955l-97.829,-217.25l-43.767,213.504Z" style="fill:#29a6df;fill-rule:nonzero;"/></g><g id="logo.svg"><g><path d="M627.623,779.751c-15.813,25.331 -43.943,42.22 -75.938,42.22c-49.318,0 -89.444,-40.126 -89.444,-89.444c-0,-49.318 40.123,-89.445 89.444,-89.445c21.581,0 41.401,7.682 56.87,20.456c-7.44,36.535 -13.631,67.029 -17.077,84.112c-0.566,2.81 -0.65,6.219 -0.597,8.576c0.041,1.881 0.352,3.774 0.909,5.572c0.628,2.02 1.846,4.779 2.853,6.546c0.852,1.494 1.997,2.849 3.189,4.058c1.192,1.208 2.633,2.329 3.97,3.195c1.265,0.818 2.594,1.63 4.057,2.003c2.611,0.668 7.685,1.904 11.612,2.003c2.509,0.061 6.017,0.111 10.152,0.148Zm-15.904,-131.738c-22.899,-0.437 -41.394,-19.202 -41.397,-42.199c0,-23.277 18.936,-42.22 42.213,-42.22c5.579,-0 10.91,1.089 15.791,3.065c-5.704,27.893 -11.391,55.757 -16.607,81.354Zm32.325,-158.086c-7.738,8.677 -18.996,14.149 -31.509,14.149c-23.277,-0 -42.213,-18.937 -42.213,-42.213c0,-23.277 18.936,-42.214 42.213,-42.214c18.596,-0 34.421,12.086 40.034,28.815c-2.658,12.899 -5.526,26.852 -8.525,41.463Zm11.746,-57.082c-0.547,-1.572 -0.845,-3.261 -0.845,-5.018c-0,-3.972 1.524,-7.596 4.018,-10.316c-1.003,4.84 -2.063,9.964 -3.173,15.334Zm12.689,-56.459c-2.437,1.644 -5.373,2.606 -8.531,2.606c-8.43,-0 -15.291,-6.862 -15.291,-15.293c-0,-8.431 6.861,-15.285 15.291,-15.285c8.437,-0 15.298,6.854 15.298,15.285c0,0.929 -0.083,1.839 -0.242,2.723c-1.463,1.482 -3.141,3.33 -4.173,5.191c-0.746,1.344 -1.576,2.992 -2.352,4.773Zm-528.779,261.845c-57.837,-0 -104.889,-47.056 -104.886,-104.898c-0,-57.837 47.049,-104.887 104.886,-104.887c57.836,0 104.885,47.05 104.885,104.887c0,57.842 -47.049,104.898 -104.885,104.898Zm-7.334,-241.096c-23.274,-0 -42.205,-18.936 -42.208,-42.213c0,-23.271 18.931,-42.207 42.208,-42.207c23.277,0 42.213,18.936 42.213,42.207c0,23.277 -18.936,42.213 -42.213,42.213Zm67.21,-66.81c-23.277,-0 -42.214,-18.937 -42.214,-42.213c0,-23.271 18.937,-42.208 42.214,-42.208c23.276,-0 42.207,18.937 42.207,42.208c0,23.276 -18.931,42.213 -42.207,42.213Zm140.342,-143.718c23.275,-0 42.212,18.935 42.212,42.206c0,23.277 -18.937,42.213 -42.212,42.213c-23.277,0 -42.209,-18.936 -42.209,-42.213c0,-23.271 18.932,-42.206 42.209,-42.206Zm84.601,125.535c-23.271,-0 -42.206,-18.936 -42.206,-42.213c-0,-23.277 18.935,-42.212 42.206,-42.212c23.277,-0 42.219,18.935 42.219,42.212c0,23.277 -18.942,42.213 -42.219,42.213Zm37.722,21.998c-0,-49.318 40.126,-89.445 89.444,-89.445c49.317,0 89.451,40.124 89.451,89.445c-0,49.324 -40.134,89.45 -89.451,89.45c-49.318,0 -89.444,-40.123 -89.444,-89.45Zm-254.66,44.49c0,8.431 -6.861,15.287 -15.292,15.287c-8.436,-0 -15.291,-6.856 -15.291,-15.287c-0,-8.431 6.855,-15.291 15.291,-15.291c8.431,-0 15.292,6.86 15.292,15.291Zm11.104,-13.42c-8.431,0 -15.291,-6.861 -15.291,-15.291c0,-8.431 6.86,-15.292 15.291,-15.292c8.432,-0 15.293,6.861 15.293,15.292c-0,8.43 -6.861,15.291 -15.293,15.291Zm49.515,-93.033c-8.437,0 -15.292,-6.861 -15.292,-15.292c-0,-8.43 6.855,-15.292 15.292,-15.292c8.43,0 15.286,6.862 15.286,15.292c-0,8.431 -6.856,15.292 -15.286,15.292Zm-29.657,-23.195c-8.43,0 -15.291,-6.855 -15.291,-15.292c-0,-8.43 6.861,-15.285 15.291,-15.285c8.431,-0 15.292,6.855 15.292,15.285c0,8.437 -6.861,15.292 -15.292,15.292Zm36.177,-45.599c8.432,-0 15.292,6.855 15.292,15.286c-0,8.436 -6.86,15.291 -15.292,15.291c-8.431,0 -15.292,-6.855 -15.292,-15.291c-0,-8.431 6.861,-15.286 15.292,-15.286Zm124.333,11.601c-8.43,-0 -15.291,-6.856 -15.291,-15.293c0,-8.431 6.861,-15.285 15.291,-15.285c8.432,-0 15.293,6.854 15.293,15.285c-0,8.437 -6.861,15.293 -15.293,15.293Zm37.56,4.04c-8.437,-0 -15.299,-6.856 -15.299,-15.286c0,-8.437 6.862,-15.292 15.299,-15.292c8.431,-0 15.291,6.855 15.291,15.292c0,8.43 -6.86,15.286 -15.291,15.286Zm37.36,9.097c-8.438,-0 -15.299,-6.861 -15.299,-15.293c0,-8.43 6.861,-15.291 15.299,-15.291c8.43,0 15.291,6.861 15.291,15.291c-0,8.432 -6.861,15.293 -15.291,15.293Zm36.364,12.845c-8.431,-0 -15.291,-6.856 -15.291,-15.287c-0,-8.43 6.86,-15.291 15.291,-15.291c8.431,-0 15.293,6.861 15.293,15.291c-0,8.431 -6.862,15.287 -15.293,15.287Zm117.542,158.13c0,-8.431 6.861,-15.293 15.293,-15.293c8.431,0 15.291,6.862 15.291,15.293c-0,8.43 -6.86,15.291 -15.291,15.291c-8.432,0 -15.293,-6.861 -15.293,-15.291Zm-36.188,134.237c0,-8.431 6.861,-15.286 15.291,-15.286c8.432,-0 15.293,6.855 15.293,15.286c-0,8.43 -6.861,15.291 -15.293,15.291c-8.43,0 -15.291,-6.861 -15.291,-15.291Zm-385.956,-103.311c-8.436,0 -15.291,-6.855 -15.291,-15.285c-0,-8.431 6.855,-15.293 15.291,-15.293c8.431,0 15.286,6.862 15.286,15.293c0,8.43 -6.855,15.285 -15.286,15.285Zm24.773,28.996c-8.43,0 -15.285,-6.86 -15.285,-15.291c0,-8.431 6.855,-15.292 15.285,-15.292c8.432,-0 15.293,6.861 15.293,15.292c-0,8.431 -6.861,15.291 -15.293,15.291Zm0,-88.299c8.432,-0 15.293,6.855 15.293,15.285c-0,8.432 -6.861,15.293 -15.293,15.293c-8.43,-0 -15.285,-6.861 -15.285,-15.293c0,-8.43 6.855,-15.285 15.285,-15.285Zm-62.329,23.584c8.432,0 15.292,6.862 15.292,15.293c-0,8.43 -6.86,15.291 -15.292,15.291c-8.431,0 -15.292,-6.861 -15.292,-15.291c-0,-8.431 6.861,-15.293 15.292,-15.293Zm-104.176,51.619c-8.43,0 -15.292,-6.855 -15.292,-15.287c0,-8.43 6.862,-15.291 15.292,-15.291c8.431,0 15.292,6.861 15.292,15.291c0,8.432 -6.861,15.287 -15.292,15.287Zm15.618,-34.343c-8.437,0 -15.292,-6.861 -15.292,-15.292c-0,-8.43 6.855,-15.292 15.292,-15.292c8.43,0 15.286,6.862 15.286,15.292c-0,8.431 -6.856,15.292 -15.286,15.292Zm94.958,301.168c0,23.277 -18.936,42.22 -42.213,42.22c-23.277,0 -42.208,-18.943 -42.208,-42.22c0,-23.277 18.931,-42.218 42.208,-42.218c23.277,-0 42.213,18.941 42.213,42.218Zm67.204,66.815c0,23.272 -18.931,42.218 -42.207,42.218c-23.277,0 -42.214,-18.943 -42.214,-42.218c0,-23.278 18.937,-42.221 42.214,-42.221c23.276,0 42.207,18.943 42.207,42.221Zm98.141,17.084c23.275,0 42.206,18.942 42.206,42.219c0,23.271 -18.931,42.213 -42.206,42.213c-23.278,-0 -42.215,-18.942 -42.215,-42.213c0,-23.277 18.937,-42.219 42.215,-42.219Zm84.595,-41.113c23.277,0 42.219,18.936 42.219,42.207c0,23.283 -18.942,42.22 -42.219,42.22c-23.271,0 -42.206,-18.937 -42.206,-42.22c-0,-23.271 18.935,-42.207 42.206,-42.207Zm-232.224,-51.194c-8.436,0 -15.292,-6.859 -15.292,-15.291c0,-8.431 6.856,-15.298 15.292,-15.298c8.431,-0 15.286,6.867 15.286,15.298c0,8.432 -6.855,15.291 -15.286,15.291Zm26.39,28.704c-8.431,-0 -15.291,-6.861 -15.291,-15.287c0,-8.43 6.86,-15.297 15.291,-15.297c8.432,0 15.293,6.867 15.293,15.297c-0,8.426 -6.861,15.287 -15.293,15.287Zm64.801,77.748c-0,8.43 -6.856,15.291 -15.286,15.291c-8.437,-0 -15.292,-6.861 -15.292,-15.291c-0,-8.432 6.855,-15.299 15.292,-15.299c8.43,0 15.286,6.867 15.286,15.299Zm-44.943,7.899c8.431,-0 15.292,6.861 15.292,15.292c0,8.43 -6.861,15.297 -15.292,15.297c-8.43,0 -15.291,-6.867 -15.291,-15.297c-0,-8.431 6.861,-15.292 15.291,-15.292Zm36.177,15.016c8.432,0 15.292,6.867 15.292,15.303c-0,8.431 -6.86,15.293 -15.292,15.293c-8.431,-0 -15.292,-6.862 -15.292,-15.293c-0,-8.436 6.861,-15.303 15.292,-15.303Zm124.333,18.978c8.432,0 15.293,6.863 15.293,15.303c-0,8.432 -6.861,15.293 -15.293,15.293c-8.43,-0 -15.291,-6.861 -15.291,-15.293c0,-8.437 6.861,-15.303 15.291,-15.303Zm37.56,-4.035c8.431,-0 15.291,6.864 15.291,15.297c0,8.425 -6.86,15.286 -15.291,15.286c-8.437,0 -15.299,-6.861 -15.299,-15.286c0,-8.43 6.862,-15.297 15.299,-15.297Zm37.36,-9.092c8.43,0 15.291,6.856 15.291,15.293c-0,8.43 -6.861,15.291 -15.291,15.291c-8.438,-0 -15.299,-6.861 -15.299,-15.291c0,-8.437 6.861,-15.293 15.299,-15.293Zm36.364,-12.845c8.431,0 15.299,6.862 15.299,15.287c-0,8.432 -6.868,15.297 -15.299,15.297c-8.431,0 -15.291,-6.865 -15.291,-15.297c-0,-8.425 6.86,-15.287 15.291,-15.287Zm-304.602,-158.481c-8.436,-0 -15.291,-6.861 -15.291,-15.293c-0,-8.43 6.855,-15.291 15.291,-15.291c8.431,0 15.286,6.861 15.286,15.291c0,8.432 -6.855,15.293 -15.286,15.293Zm24.773,-59.58c8.432,0 15.293,6.867 15.293,15.297c-0,8.431 -6.861,15.287 -15.293,15.287c-8.43,-0 -15.285,-6.856 -15.285,-15.287c0,-8.43 6.855,-15.297 15.285,-15.297Zm15.293,73.014c-0,8.431 -6.861,15.291 -15.293,15.291c-8.43,0 -15.285,-6.86 -15.285,-15.291c0,-8.431 6.855,-15.293 15.285,-15.293c8.432,0 15.293,6.862 15.293,15.293Zm-77.622,-38.877c8.432,0 15.292,6.856 15.292,15.291c-0,8.432 -6.86,15.293 -15.292,15.293c-8.431,-0 -15.292,-6.861 -15.292,-15.293c-0,-8.435 6.861,-15.291 15.292,-15.291Zm-88.878,-5.748c-0,8.43 -6.861,15.291 -15.293,15.291c-8.435,-0 -15.297,-6.861 -15.297,-15.291c0,-8.437 6.862,-15.293 15.297,-15.293c8.432,0 15.293,6.856 15.293,15.293Zm15.612,34.349c-0,8.43 -6.856,15.291 -15.286,15.291c-8.437,-0 -15.298,-6.861 -15.298,-15.291c-0,-8.432 6.861,-15.293 15.298,-15.293c8.43,0 15.286,6.861 15.286,15.293Z" style="fill:none;stroke:#53b7db;stroke-opacity:0.25;stroke-width:11.76px;"/><g><path d="M640.349,779.823c-64.859,67.692 -156.169,109.839 -257.32,109.839c-196.805,-0 -356.329,-159.527 -356.329,-356.329c0,-196.792 159.527,-356.328 356.329,-356.328c133.274,-0 249.461,73.17 310.58,181.529c-3.23,0.383 -6.601,1.131 -8.618,1.601c-1.554,0.363 -2.992,1.141 -4.379,1.929c-1.421,0.807 -2.941,1.738 -4.15,2.917c-1.63,1.592 -4.225,4.1 -5.631,6.632c-1.748,3.146 -3.944,7.952 -4.851,12.245c-13.226,62.673 -61.985,301.731 -74.502,363.792c-0.566,2.81 -0.65,6.219 -0.597,8.576c0.041,1.881 0.352,3.774 0.909,5.572c0.628,2.02 1.846,4.779 2.853,6.546c0.852,1.494 1.997,2.849 3.189,4.058c1.192,1.208 2.633,2.329 3.97,3.195c1.265,0.818 2.594,1.63 4.057,2.003c2.611,0.668 7.685,1.904 11.612,2.003c4.819,0.119 13.327,0.191 22.878,0.22Z" style="fill:none;stroke:#26a7df;stroke-width:11.76px;"/><circle cx="328.684" cy="353.743" r="75.901" style="fill:none;stroke:#26a7df;stroke-width:11.76px;stroke-linecap:butt;stroke-linejoin:miter;"/><circle cx="328.684" cy="712.932" r="75.901" style="fill:none;stroke:#26a7df;stroke-width:11.76px;stroke-linecap:butt;stroke-linejoin:miter;"/><path d="M404.586,353.743l-0,359.189" style="fill:none;fill-rule:nonzero;stroke:#26a7df;stroke-width:11.76px;stroke-linecap:butt;stroke-linejoin:miter;"/><g><path d="M382.066,299.656l180.096,180.096l-107.344,107.344l-180.096,-180.096l107.344,-107.344Z" style="fill:none;stroke:#26a7df;stroke-width:11.76px;"/></g><g><path d="M562.004,587.21l-180.093,180.093l-107.342,-107.342l180.093,-180.093l107.342,107.342Z" style="fill:none;stroke:#26a7df;stroke-width:11.76px;"/></g><path d="M252.75,711.928l0,-359.183" style="fill:none;fill-rule:nonzero;stroke:#26a7df;stroke-width:11.76px;stroke-linecap:butt;stroke-linejoin:miter;"/><circle cx="508.277" cy="533.333" r="75.904" style="fill:none;stroke:#26a7df;stroke-width:11.76px;stroke-linecap:butt;stroke-linejoin:miter;"/></g></g></g></g></svg>